<svg xmlns="http://www.w3.org/2000/svg" xmlns:xlink="http://www.w3.org/1999/xlink" version="1.1" width="256" height="256" viewBox="0 0 256 256" xml:space="preserve">
<desc>Created with Fabric.js 1.7.22</desc>
<defs>
</defs>
<g transform="translate(128 128) scale(0.72 0.72)" style="">
	<g style="stroke: none; stroke-width: 0; stroke-dasharray: none; stroke-linecap: butt; stroke-linejoin: miter; stroke-miterlimit: 10; fill: none; fill-rule: nonzero; opacity: 1;" transform="translate(-175.05 -175.05000000000004) scale(3.89 3.89)" >
	<rect x="24.81" y="62.54" rx="0" ry="0" width="5.81" height="9.42" style="stroke: none; stroke-width: 1; stroke-dasharray: none; stroke-linecap: butt; stroke-linejoin: miter; stroke-miterlimit: 10; fill: rgb(240,188,94); fill-rule: nonzero; opacity: 1;" transform=" matrix(6.123234e-17 -1 1 6.123234e-17 -39.5257 94.9667) "/>
	<rect x="36.47" y="55.36" rx="0" ry="0" width="20.16" height="9.42" style="stroke: none; stroke-width: 1; stroke-dasharray: none; stroke-linecap: butt; stroke-linejoin: miter; stroke-miterlimit: 10; fill: rgb(240,188,94); fill-rule: nonzero; opacity: 1;" transform=" matrix(6.123234e-17 -1 1 6.123234e-17 -13.517 106.6228) "/>
	<rect x="48.13" y="48.19" rx="0" ry="0" width="34.52" height="9.42" style="stroke: none; stroke-width: 1; stroke-dasharray: none; stroke-linecap: butt; stroke-linejoin: miter; stroke-miterlimit: 10; fill: rgb(240,188,94); fill-rule: nonzero; opacity: 1;" transform=" matrix(6.123234e-17 -1 1 6.123234e-17 12.4918 118.279) "/>
	<circle cx="63.016999999999996" cy="14.447" r="12.357" style="stroke: none; stroke-width: 1; stroke-dasharray: none; stroke-linecap: butt; stroke-linejoin: miter; stroke-miterlimit: 10; fill: rgb(240,188,94); fill-rule: nonzero; opacity: 1;" transform="  matrix(1 0 0 1 0 0) "/>
	<path d="M 10.287 45.351 c -0.552 0 -1 -0.448 -1 -1 V 28.14 c 0 -2.852 2.32 -5.172 5.172 -5.172 h 22.582 c 0.552 0 1 0.448 1 1 s -0.448 1 -1 1 H 14.459 c -1.749 0 -3.172 1.423 -3.172 3.172 v 16.211 C 11.287 44.903 10.839 45.351 10.287 45.351 z" style="stroke: none; stroke-width: 1; stroke-dasharray: none; stroke-linecap: butt; stroke-linejoin: miter; stroke-miterlimit: 10; fill: rgb(0,0,0); fill-rule: nonzero; opacity: 1;" transform=" matrix(1 0 0 1 0 0) " stroke-linecap="round" />
	<path d="M 83.27 77.859 H 10.287 c -0.552 0 -1 -0.447 -1 -1 V 65.145 c 0 -0.553 0.448 -1 1 -1 s 1 0.447 1 1 v 10.715 H 82.27 V 28.14 c 0 -1.749 -1.423 -3.172 -3.172 -3.172 h -8.206 c -0.553 0 -1 -0.448 -1 -1 s 0.447 -1 1 -1 h 8.206 c 2.852 0 5.172 2.32 5.172 5.172 v 48.719 C 84.27 77.412 83.822 77.859 83.27 77.859 z" style="stroke: none; stroke-width: 1; stroke-dasharray: none; stroke-linecap: butt; stroke-linejoin: miter; stroke-miterlimit: 10; fill: rgb(0,0,0); fill-rule: nonzero; opacity: 1;" transform=" matrix(1 0 0 1 0 0) " stroke-linecap="round" />
	<path d="M 80.543 88.909 h -67.98 c -5.214 0 -9.457 -4.242 -9.457 -9.456 v -2.594 c 0 -0.553 0.448 -1 1 -1 H 89 c 0.553 0 1 0.447 1 1 v 2.594 C 90 84.667 85.758 88.909 80.543 88.909 z M 5.106 77.859 v 1.594 c 0 4.111 3.345 7.456 7.457 7.456 h 67.98 c 4.112 0 7.457 -3.345 7.457 -7.456 v -1.594 H 5.106 z" style="stroke: none; stroke-width: 1; stroke-dasharray: none; stroke-linecap: butt; stroke-linejoin: miter; stroke-miterlimit: 10; fill: rgb(0,0,0); fill-rule: nonzero; opacity: 1;" transform=" matrix(1 0 0 1 0 0) " stroke-linecap="round" />
	<path d="M 50.404 83.385 H 40.031 c -0.552 0 -1 -0.447 -1 -1 s 0.448 -1 1 -1 h 10.374 c 0.553 0 1 0.447 1 1 S 50.957 83.385 50.404 83.385 z" style="stroke: none; stroke-width: 1; stroke-dasharray: none; stroke-linecap: butt; stroke-linejoin: miter; stroke-miterlimit: 10; fill: rgb(0,0,0); fill-rule: nonzero; opacity: 1;" transform=" matrix(1 0 0 1 0 0) " stroke-linecap="round" />
	<path d="M 32.429 71.152 h -9.417 c -0.552 0 -1 -0.447 -1 -1 V 64.34 c 0 -0.553 0.448 -1 1 -1 h 9.417 c 0.552 0 1 0.447 1 1 v 5.813 C 33.429 70.705 32.981 71.152 32.429 71.152 z M 24.012 69.152 h 7.417 V 65.34 h -7.417 V 69.152 z" style="stroke: none; stroke-width: 1; stroke-dasharray: none; stroke-linecap: butt; stroke-linejoin: miter; stroke-miterlimit: 10; fill: rgb(0,0,0); fill-rule: nonzero; opacity: 1;" transform=" matrix(1 0 0 1 0 0) " stroke-linecap="round" />
	<path d="M 51.261 71.152 h -9.416 c -0.552 0 -1 -0.447 -1 -1 V 49.987 c 0 -0.553 0.448 -1 1 -1 h 9.416 c 0.553 0 1 0.447 1 1 v 20.165 C 52.261 70.705 51.813 71.152 51.261 71.152 z M 42.845 69.152 h 7.416 V 50.987 h -7.416 V 69.152 z" style="stroke: none; stroke-width: 1; stroke-dasharray: none; stroke-linecap: butt; stroke-linejoin: miter; stroke-miterlimit: 10; fill: rgb(0,0,0); fill-rule: nonzero; opacity: 1;" transform=" matrix(1 0 0 1 0 0) " stroke-linecap="round" />
	<path d="M 70.094 71.152 h -9.416 c -0.553 0 -1 -0.447 -1 -1 V 35.635 c 0 -0.552 0.447 -1 1 -1 h 9.416 c 0.553 0 1 0.448 1 1 v 34.518 C 71.094 70.705 70.646 71.152 70.094 71.152 z M 61.678 69.152 h 7.416 V 36.635 h -7.416 V 69.152 z" style="stroke: none; stroke-width: 1; stroke-dasharray: none; stroke-linecap: butt; stroke-linejoin: miter; stroke-miterlimit: 10; fill: rgb(0,0,0); fill-rule: nonzero; opacity: 1;" transform=" matrix(1 0 0 1 0 0) " stroke-linecap="round" />
	<path d="M 63.014 27.804 c -7.365 0 -13.356 -5.992 -13.356 -13.357 S 55.648 1.09 63.014 1.09 s 13.357 5.992 13.357 13.357 S 70.379 27.804 63.014 27.804 z M 63.014 3.09 c -6.262 0 -11.356 5.095 -11.356 11.357 s 5.095 11.357 11.356 11.357 c 6.263 0 11.357 -5.095 11.357 -11.357 S 69.276 3.09 63.014 3.09 z" style="stroke: none; stroke-width: 1; stroke-dasharray: none; stroke-linecap: butt; stroke-linejoin: miter; stroke-miterlimit: 10; fill: rgb(0,0,0); fill-rule: nonzero; opacity: 1;" transform=" matrix(1 0 0 1 0 0) " stroke-linecap="round" />
	<path d="M 63.264 20.686 c -3.439 0 -6.238 -2.798 -6.238 -6.238 c 0 -3.439 2.799 -6.238 6.238 -6.238 c 1.551 0 3.038 0.573 4.188 1.614 c 0.409 0.371 0.44 1.003 0.069 1.413 s -1.005 0.439 -1.413 0.07 c -0.78 -0.707 -1.79 -1.097 -2.844 -1.097 c -2.337 0 -4.238 1.901 -4.238 4.238 s 1.901 4.238 4.238 4.238 c 1.054 0 2.063 -0.39 2.844 -1.097 c 0.409 -0.371 1.043 -0.339 1.413 0.07 c 0.371 0.409 0.34 1.042 -0.069 1.413 C 66.302 20.112 64.814 20.686 63.264 20.686 z" style="stroke: none; stroke-width: 1; stroke-dasharray: none; stroke-linecap: butt; stroke-linejoin: miter; stroke-miterlimit: 10; fill: rgb(0,0,0); fill-rule: nonzero; opacity: 1;" transform=" matrix(1 0 0 1 0 0) " stroke-linecap="round" />
	<path d="M 63.264 10.209 c -0.553 0 -1 -0.448 -1 -1 V 7.2 c 0 -0.552 0.447 -1 1 -1 s 1 0.448 1 1 v 2.009 C 64.264 9.762 63.816 10.209 63.264 10.209 z" style="stroke: none; stroke-width: 1; stroke-dasharray: none; stroke-linecap: butt; stroke-linejoin: miter; stroke-miterlimit: 10; fill: rgb(0,0,0); fill-rule: nonzero; opacity: 1;" transform=" matrix(1 0 0 1 0 0) " stroke-linecap="round" />
	<path d="M 63.264 22.694 c -0.553 0 -1 -0.448 -1 -1 v -2.009 c 0 -0.552 0.447 -1 1 -1 s 1 0.448 1 1 v 2.009 C 64.264 22.247 63.816 22.694 63.264 22.694 z" style="stroke: none; stroke-width: 1; stroke-dasharray: none; stroke-linecap: butt; stroke-linejoin: miter; stroke-miterlimit: 10; fill: rgb(0,0,0); fill-rule: nonzero; opacity: 1;" transform=" matrix(1 0 0 1 0 0) " stroke-linecap="round" />
	<path d="M 1 62.897 c -0.3 0 -0.598 -0.135 -0.794 -0.393 c -0.336 -0.438 -0.252 -1.066 0.186 -1.401 L 46.257 26.01 c 0.438 -0.335 1.067 -0.251 1.401 0.186 c 0.336 0.439 0.252 1.066 -0.187 1.402 L 1.608 62.691 C 1.426 62.83 1.213 62.897 1 62.897 z" style="stroke: none; stroke-width: 1; stroke-dasharray: none; stroke-linecap: butt; stroke-linejoin: miter; stroke-miterlimit: 10; fill: rgb(0,0,0); fill-rule: nonzero; opacity: 1;" transform=" matrix(1 0 0 1 0 0) " stroke-linecap="round" />
	<path d="M 7.721 68.108 c -0.3 0 -0.598 -0.135 -0.794 -0.393 c -0.336 -0.438 -0.252 -1.066 0.186 -1.401 l 48.119 -36.818 c 0.438 -0.334 1.067 -0.251 1.401 0.187 c 0.336 0.439 0.252 1.066 -0.187 1.402 L 8.328 67.902 C 8.146 68.041 7.933 68.108 7.721 68.108 z" style="stroke: none; stroke-width: 1; stroke-dasharray: none; stroke-linecap: butt; stroke-linejoin: miter; stroke-miterlimit: 10; fill: rgb(0,0,0); fill-rule: nonzero; opacity: 1;" transform=" matrix(1 0 0 1 0 0) " stroke-linecap="round" />
	<path d="M 7.721 47.403 c -0.3 0 -0.598 -0.135 -0.794 -0.393 c -0.336 -0.438 -0.252 -1.066 0.186 -1.401 l 37.839 -28.954 c 0.439 -0.335 1.067 -0.253 1.402 0.186 c 0.336 0.439 0.252 1.066 -0.187 1.402 L 8.328 47.197 C 8.146 47.336 7.933 47.403 7.721 47.403 z" style="stroke: none; stroke-width: 1; stroke-dasharray: none; stroke-linecap: butt; stroke-linejoin: miter; stroke-miterlimit: 10; fill: rgb(0,0,0); fill-rule: nonzero; opacity: 1;" transform=" matrix(1 0 0 1 0 0) " stroke-linecap="round" />
</g>
</g>
</svg>