<?xml version="1.0" standalone="no"?>
<!DOCTYPE svg PUBLIC "-//W3C//DTD SVG 20010904//EN"
 "http://www.w3.org/TR/2001/REC-SVG-20010904/DTD/svg10.dtd">
<svg version="1.0" xmlns="http://www.w3.org/2000/svg"
 width="1080.000000pt" height="1080.000000pt" viewBox="0 0 1080.000000 1080.000000"
 preserveAspectRatio="xMidYMid meet">
<metadata>
Created by potrace 1.14, written by Peter Selinger 2001-2017
</metadata>
<g transform="translate(0.000000,1080.000000) scale(0.100000,-0.100000)"
fill="#000000" stroke="none">
<path d="M5375 10509 c-4 -6 -13 -8 -21 -5 -8 3 -14 0 -14 -7 0 -8 -3 -7 -9 2
-8 13 -12 13 -27 0 -15 -12 -16 -12 -9 0 6 10 4 12 -4 6 -7 -4 -69 -9 -138
-11 -83 -2 -130 -7 -141 -16 -12 -10 -14 -10 -8 0 4 6 3 12 -3 12 -5 0 -13 -5
-16 -10 -5 -8 -11 -7 -21 1 -11 9 -14 9 -14 -1 0 -10 -3 -10 -14 -1 -8 7 -17
8 -20 3 -3 -6 -22 -9 -41 -7 -19 1 -35 -1 -35 -5 0 -3 -13 -5 -30 -4 -17 1
-30 -3 -30 -9 0 -7 -5 -5 -10 3 -7 10 -12 11 -17 4 -5 -6 -31 -10 -59 -10 -33
1 -50 -3 -47 -10 2 -6 -3 -11 -11 -11 -8 0 -12 5 -9 10 4 6 1 7 -8 1 -13 -8
-25 -10 -87 -13 -13 -1 -21 -5 -18 -9 2 -4 -4 -9 -15 -9 -13 -1 -17 2 -12 10
5 9 2 8 -9 0 -8 -7 -28 -14 -44 -14 -41 -2 -65 -9 -60 -18 3 -4 -11 -6 -30 -5
-19 2 -34 -1 -34 -8 0 -6 -11 -8 -25 -6 -14 3 -25 2 -25 -1 0 -4 -10 -7 -22
-8 -11 -1 -25 -8 -29 -15 -7 -10 -9 -10 -9 2 0 10 -3 11 -8 4 -4 -6 -21 -11
-39 -10 -17 1 -31 -3 -30 -9 2 -9 -4 -11 -56 -13 -16 -1 -26 -6 -22 -11 3 -5
-9 -9 -27 -8 -19 1 -32 -3 -31 -9 1 -6 -9 -10 -22 -8 -14 1 -25 -2 -25 -7 0
-4 -7 -6 -15 -3 -9 4 -15 0 -15 -7 0 -12 -2 -12 -9 -1 -7 11 -9 11 -14 -2 -4
-9 -14 -13 -27 -11 -11 2 -20 0 -20 -5 0 -5 -9 -7 -20 -5 -13 3 -18 0 -14 -7
5 -7 1 -9 -9 -5 -10 4 -17 1 -17 -6 0 -9 -3 -8 -9 1 -7 11 -9 11 -14 -2 -4 -9
-10 -16 -14 -15 -23 4 -43 -2 -38 -11 4 -6 -1 -7 -10 -3 -10 3 -21 0 -26 -8
-7 -12 -9 -12 -9 1 0 13 -2 13 -9 1 -5 -8 -15 -16 -23 -17 -7 -2 -22 -5 -33
-7 -11 -3 -19 -9 -18 -15 2 -6 -6 -9 -16 -7 -11 2 -27 -3 -38 -10 -22 -17 -37
-19 -28 -4 4 6 -2 5 -13 -2 -12 -7 -18 -17 -15 -23 4 -5 -1 -7 -10 -3 -9 3
-19 2 -22 -4 -4 -5 -11 -7 -16 -4 -5 4 -9 1 -9 -5 0 -6 -4 -8 -10 -5 -5 3 -10
1 -10 -5 0 -7 -6 -10 -14 -7 -8 3 -16 1 -18 -4 -2 -6 -12 -12 -23 -13 -11 -2
-19 -9 -17 -15 2 -9 -3 -9 -19 0 -17 9 -20 8 -14 -2 6 -9 3 -11 -9 -6 -10 4
-15 3 -11 -3 4 -6 -7 -13 -24 -16 -17 -4 -31 -10 -31 -15 0 -5 -9 -9 -20 -9
-11 0 -23 -6 -26 -14 -3 -8 -12 -12 -20 -9 -8 3 -14 0 -14 -6 0 -6 -9 -11 -19
-11 -11 0 -21 -4 -23 -9 -1 -5 -10 -11 -18 -13 -8 -2 -30 -14 -49 -27 -19 -14
-31 -19 -27 -12 6 10 4 10 -12 0 -12 -7 -18 -17 -15 -23 4 -5 -1 -7 -10 -3
-10 3 -17 2 -17 -3 0 -6 -3 -9 -7 -8 -17 3 -42 -15 -36 -26 3 -6 3 -8 -2 -4
-10 9 -85 -29 -85 -44 0 -6 -3 -8 -7 -5 -3 4 -15 -1 -26 -10 -15 -13 -18 -14
-13 -3 4 8 -1 5 -12 -7 -11 -13 -25 -23 -32 -23 -6 0 -8 -4 -5 -10 3 -6 -1 -7
-9 -4 -9 3 -16 1 -16 -5 0 -6 -7 -11 -15 -11 -8 0 -15 -5 -15 -11 0 -5 -5 -7
-10 -4 -6 3 -13 -1 -16 -9 -3 -9 -11 -16 -17 -16 -6 0 -22 -10 -35 -22 -14
-13 -21 -16 -17 -8 8 13 6 13 -8 1 -9 -7 -14 -17 -11 -22 3 -5 2 -9 -3 -8 -22
4 -34 -2 -27 -13 5 -8 0 -7 -11 2 -11 9 -16 10 -11 3 4 -8 1 -13 -9 -13 -9 0
-13 -4 -10 -10 3 -5 -1 -10 -9 -10 -9 0 -16 -8 -16 -17 0 -14 -2 -15 -9 -5 -6
11 -10 10 -15 -4 -3 -9 -9 -15 -12 -12 -2 3 -24 -12 -47 -33 -23 -22 -48 -39
-55 -39 -7 0 -15 -7 -18 -15 -4 -8 -10 -15 -15 -15 -14 0 -48 -33 -43 -42 3
-4 -2 -5 -10 -2 -9 3 -16 1 -16 -6 0 -6 -3 -9 -7 -7 -5 3 -17 -5 -28 -16 -11
-11 -14 -16 -6 -12 10 5 12 4 7 -4 -4 -6 -11 -9 -16 -6 -4 3 -21 -8 -37 -25
-15 -16 -34 -30 -41 -30 -7 0 -10 -4 -7 -10 3 -5 3 -10 -2 -10 -13 -1 -83 -67
-83 -79 0 -6 -6 -10 -12 -8 -7 1 -12 -4 -10 -11 1 -8 -2 -11 -7 -8 -5 3 -20
-7 -34 -23 -14 -17 -28 -27 -31 -24 -3 4 -6 -2 -6 -12 0 -10 -3 -16 -6 -12 -7
7 -90 -75 -87 -85 2 -5 -7 -8 -19 -8 -12 0 -19 -2 -16 -5 8 -8 -48 -65 -63
-65 -7 0 -9 -3 -6 -6 4 -4 -12 -24 -35 -44 -26 -25 -38 -42 -33 -50 5 -8 4
-11 -2 -7 -10 6 -43 -26 -43 -43 0 -9 -14 -14 -32 -11 -4 0 -5 -6 -2 -13 3 -9
-5 -20 -20 -28 -14 -7 -25 -16 -25 -20 -1 -5 -1 -13 -1 -19 0 -5 -4 -7 -10 -4
-5 3 -10 -3 -10 -15 0 -12 -5 -18 -10 -15 -6 3 -13 -2 -17 -12 -3 -10 -21 -31
-39 -48 -17 -16 -35 -40 -39 -52 -3 -13 -13 -23 -21 -23 -8 0 -12 -4 -9 -10 3
-5 3 -10 -2 -10 -4 0 -14 -14 -21 -30 -8 -17 -18 -28 -22 -25 -5 3 -11 -4 -15
-15 -3 -11 -11 -20 -16 -20 -6 0 -7 -5 -4 -10 3 -6 -1 -13 -9 -16 -9 -3 -14
-10 -11 -14 3 -5 -1 -12 -9 -17 -8 -4 -16 -12 -18 -18 -2 -5 -6 -9 -10 -8 -8
3 -12 -12 -9 -35 1 -7 -4 -11 -11 -10 -7 2 -12 -4 -10 -14 1 -9 -3 -20 -9 -24
-8 -5 -9 -3 -4 6 5 9 4 11 -3 6 -7 -4 -12 -14 -12 -22 0 -8 -4 -14 -10 -14 -5
0 -6 -7 -3 -17 4 -11 3 -14 -5 -9 -7 4 -12 2 -12 -5 0 -6 -8 -18 -17 -26 -12
-10 -13 -12 -3 -8 10 4 9 2 -2 -8 -10 -8 -15 -17 -11 -20 3 -4 2 -7 -4 -7 -6
0 -13 -9 -16 -21 -4 -13 -10 -18 -18 -13 -8 5 -10 3 -5 -5 5 -7 0 -19 -10 -27
-11 -9 -12 -12 -4 -8 13 7 13 6 0 -12 -8 -10 -19 -22 -25 -26 -7 -5 -7 -8 0
-8 6 0 5 -4 -2 -8 -6 -4 -13 -14 -15 -21 -2 -8 -9 -22 -16 -30 -7 -9 -12 -20
-12 -24 1 -4 -6 -15 -15 -23 -8 -9 -13 -19 -10 -24 3 -4 -2 -11 -11 -14 -9 -4
-14 -13 -10 -21 3 -8 0 -15 -7 -15 -7 0 -13 -10 -14 -21 -1 -12 -10 -30 -19
-40 -9 -11 -14 -19 -10 -19 4 0 0 -7 -8 -16 -9 -8 -14 -20 -11 -25 4 -5 -1 -9
-9 -9 -9 0 -13 -6 -10 -14 3 -8 1 -17 -5 -21 -6 -3 -11 -15 -11 -26 0 -10 -3
-19 -7 -19 -11 0 -33 -51 -27 -61 3 -5 -2 -9 -12 -9 -14 0 -15 -2 -3 -17 12
-15 12 -16 -4 -10 -11 4 -16 3 -12 -3 3 -5 -1 -20 -10 -33 -8 -13 -12 -27 -8
-30 3 -4 1 -7 -6 -7 -7 0 -9 -4 -6 -10 3 -5 2 -10 -3 -10 -5 0 -9 -6 -9 -12
-1 -26 -8 -43 -23 -55 -8 -6 -12 -15 -8 -19 4 -4 3 -13 -3 -21 -6 -7 -8 -13
-3 -13 5 0 4 -4 -3 -8 -6 -4 -13 -16 -15 -27 -1 -11 -9 -26 -16 -33 -7 -8 -10
-18 -6 -23 3 -6 1 -16 -5 -23 -6 -7 -12 -21 -14 -32 -2 -10 -9 -30 -17 -44 -7
-14 -15 -35 -16 -48 -2 -13 -9 -31 -16 -40 -11 -13 -11 -14 1 -7 9 5 6 -6 -8
-28 -13 -22 -18 -37 -11 -37 7 0 6 -6 -4 -15 -8 -9 -13 -22 -10 -30 4 -8 1
-15 -6 -15 -6 0 -9 -4 -5 -9 3 -5 0 -13 -6 -16 -5 -4 -8 -13 -5 -21 3 -7 0
-16 -5 -20 -6 -3 -9 -14 -6 -24 3 -11 -1 -21 -8 -23 -6 -3 -11 -19 -10 -36 1
-17 -3 -31 -8 -31 -5 0 -3 -8 4 -17 8 -10 9 -14 2 -10 -15 9 -22 -2 -25 -42
-1 -17 -5 -31 -9 -31 -4 0 -7 -6 -6 -12 1 -44 -4 -78 -12 -73 -6 3 -8 -3 -6
-15 2 -11 0 -22 -4 -24 -4 -3 -7 -21 -6 -40 1 -20 -2 -33 -6 -30 -5 3 -10 -10
-10 -28 -1 -18 -2 -37 -4 -43 -1 -5 -3 -23 -3 -38 -1 -16 -6 -26 -10 -23 -5 3
-8 -11 -7 -30 1 -19 -2 -37 -7 -40 -4 -3 -6 -10 -2 -15 3 -5 1 -16 -6 -24 -8
-9 -8 -15 0 -20 6 -3 7 -12 3 -18 -7 -11 -9 -25 -15 -97 0 -8 -6 -21 -12 -29
-8 -11 -8 -13 0 -8 12 7 29 -21 19 -31 -3 -3 -5 0 -5 6 0 7 -3 12 -8 12 -4 0
-7 -20 -7 -45 1 -25 -2 -45 -5 -45 -3 0 -5 -11 -5 -25 0 -14 4 -25 9 -25 5 0
4 -6 -2 -13 -12 -14 -11 -35 1 -54 4 -6 2 -15 -4 -19 -8 -5 -9 -3 -4 6 5 9 4
11 -4 6 -9 -6 -9 -11 0 -22 9 -11 8 -14 -2 -14 -11 0 -11 -2 1 -10 8 -5 10
-10 4 -10 -6 0 -10 -12 -8 -27 1 -15 -3 -31 -9 -35 -9 -6 -9 -8 1 -8 7 0 10
-4 7 -10 -3 -5 -1 -10 5 -10 7 0 5 -7 -4 -16 -12 -12 -13 -20 -6 -35 6 -10 7
-19 3 -19 -7 0 -8 -138 -3 -410 1 -52 7 -103 12 -114 6 -10 6 -16 1 -13 -4 3
-8 -5 -8 -18 0 -18 3 -21 13 -13 9 8 11 7 6 -6 -3 -9 -11 -16 -18 -16 -6 0 -4
-5 4 -10 8 -5 11 -10 5 -10 -5 0 -3 -5 5 -10 8 -5 10 -10 4 -10 -12 0 -11 -41
1 -59 3 -6 1 -11 -6 -11 -7 0 -8 -4 -2 -12 5 -7 10 -26 12 -43 2 -16 8 -33 15
-37 8 -5 7 -8 -3 -8 -11 0 -11 -3 -1 -15 9 -11 9 -15 1 -15 -7 0 -9 -5 -6 -10
4 -6 9 -25 11 -43 7 -52 9 -61 17 -74 5 -8 3 -13 -5 -13 -9 0 -9 -3 2 -10 8
-5 12 -10 9 -10 -4 0 -3 -16 1 -35 5 -23 4 -36 -4 -39 -6 -2 -4 -5 4 -5 11 -1
15 -13 16 -42 1 -23 7 -45 14 -49 10 -6 9 -9 -1 -12 -11 -4 -12 -8 -2 -20 7
-8 14 -31 15 -51 2 -20 6 -37 11 -37 4 0 7 -15 7 -34 0 -19 6 -37 13 -39 9 -4
9 -6 -1 -6 -11 -1 -10 -4 1 -15 8 -9 12 -26 10 -40 -3 -15 -1 -26 6 -26 5 0 8
-7 5 -15 -4 -8 -2 -15 3 -15 5 0 8 -16 8 -36 -1 -20 4 -38 10 -41 7 -2 11 -17
10 -33 -1 -16 1 -28 5 -25 10 6 19 -18 16 -41 -2 -10 3 -25 11 -33 8 -7 12
-20 9 -27 -3 -7 -1 -16 4 -19 6 -4 10 -15 10 -26 0 -10 5 -19 11 -19 6 0 9 -7
6 -15 -4 -8 -2 -17 4 -21 6 -3 8 -12 5 -20 -3 -8 -2 -14 3 -14 5 0 8 -8 7 -18
0 -10 5 -16 13 -14 12 3 12 1 0 -14 -8 -10 -9 -15 -3 -11 7 4 15 0 18 -9 4
-10 2 -13 -7 -8 -6 4 -3 -3 8 -16 11 -13 14 -20 7 -16 -11 6 -11 4 -3 -13 6
-12 15 -30 21 -41 5 -11 10 -27 10 -35 0 -9 4 -13 10 -10 6 4 10 -8 10 -29 0
-24 5 -36 14 -36 9 0 13 -9 12 -24 -2 -15 3 -27 11 -31 9 -3 12 -12 9 -20 -3
-8 -2 -15 3 -15 8 0 18 -22 26 -59 2 -8 10 -18 17 -22 7 -5 10 -9 5 -9 -4 0
-1 -10 8 -23 8 -13 12 -27 8 -30 -3 -4 -1 -7 6 -7 7 0 9 -4 6 -10 -3 -5 -1
-10 4 -10 6 0 11 -9 11 -20 0 -11 5 -20 10 -20 6 0 10 -9 10 -20 0 -11 5 -20
10 -20 6 0 10 -9 10 -20 0 -11 5 -20 10 -20 6 0 10 -9 10 -20 0 -11 4 -20 8
-20 4 0 14 -16 21 -35 7 -19 16 -33 20 -31 4 3 8 -4 8 -15 1 -10 12 -34 25
-52 13 -17 24 -35 24 -39 1 -5 2 -13 3 -19 0 -6 8 -9 15 -6 10 4 13 1 10 -7
-3 -7 2 -21 11 -30 12 -11 13 -16 3 -16 -7 0 -2 -7 10 -16 12 -8 22 -22 22
-30 0 -8 4 -14 10 -14 5 0 7 -7 4 -15 -4 -10 0 -15 11 -15 9 0 13 -4 10 -10
-3 -5 -1 -10 6 -10 7 0 9 -3 6 -6 -4 -4 3 -15 14 -25 11 -9 20 -20 20 -23 -3
-20 1 -26 13 -26 10 0 12 -7 8 -22 -3 -13 -1 -19 5 -15 6 4 19 -9 29 -28 10
-19 23 -35 28 -35 5 0 6 -3 3 -7 -4 -3 2 -12 13 -20 11 -8 20 -20 20 -27 0 -7
8 -21 18 -32 34 -37 61 -81 55 -88 -4 -4 1 -4 12 0 15 6 17 4 12 -9 -4 -12 -1
-17 10 -17 13 0 14 -2 2 -17 -11 -13 -11 -15 -1 -9 15 9 44 -23 35 -39 -4 -5
-3 -7 2 -3 9 9 42 -26 50 -53 4 -11 13 -19 21 -19 8 0 13 -4 10 -8 -3 -5 4
-15 15 -22 10 -8 19 -20 19 -28 0 -7 4 -10 10 -7 5 3 10 -1 10 -10 0 -9 5 -13
10 -10 5 3 10 -3 10 -14 0 -12 6 -20 13 -19 6 2 11 -3 9 -9 -1 -7 5 -13 13
-13 8 0 14 -3 14 -7 -1 -5 -1 -15 0 -23 1 -13 2 -13 11 0 8 13 10 12 10 -3 0
-10 7 -20 15 -23 8 -4 12 -10 9 -15 -3 -5 2 -9 10 -9 9 0 16 -7 16 -16 0 -8 5
-12 10 -9 6 3 10 1 10 -5 0 -6 19 -30 42 -53 24 -22 42 -44 40 -49 -1 -4 5 -8
14 -8 8 0 12 -4 9 -10 -3 -5 1 -10 10 -10 9 0 13 -5 10 -10 -3 -6 -2 -10 3
-10 13 0 78 -63 74 -73 -1 -5 2 -6 8 -2 5 3 10 2 10 -4 0 -5 9 -13 20 -16 11
-4 18 -11 15 -16 -4 -5 3 -9 14 -9 15 0 19 -4 14 -17 -4 -11 -3 -14 5 -9 7 4
12 2 12 -3 0 -6 7 -11 15 -11 8 0 15 -4 15 -10 0 -16 54 -60 68 -55 7 3 11 1
8 -4 -7 -11 38 -53 47 -44 4 3 7 0 7 -8 0 -19 37 -42 53 -32 7 4 5 -2 -3 -12
-8 -10 -10 -16 -4 -12 7 4 27 -6 45 -22 18 -16 38 -27 44 -24 5 4 7 3 3 -2 -8
-9 15 -35 31 -35 6 0 11 -4 11 -10 0 -5 10 -10 22 -10 12 0 19 -3 15 -6 -7 -8
17 -34 32 -34 6 0 11 -5 11 -12 0 -6 3 -9 6 -5 6 5 28 -10 65 -45 9 -9 20 -14
23 -11 3 4 6 1 6 -6 0 -7 5 -9 10 -6 6 3 10 -2 10 -12 0 -15 2 -16 10 -3 8 13
10 13 10 -1 0 -9 8 -23 17 -30 11 -10 14 -10 9 -2 -4 7 -2 13 3 13 6 0 11 -7
11 -15 0 -9 6 -12 17 -8 11 4 14 3 9 -5 -5 -8 0 -12 13 -12 12 0 21 -7 21 -15
0 -9 6 -12 15 -9 8 4 15 1 15 -5 0 -6 7 -11 15 -11 8 0 15 -5 15 -10 0 -6 6
-9 13 -8 6 2 11 -3 9 -10 -1 -8 2 -11 7 -8 5 4 12 2 16 -4 4 -6 11 -8 16 -5 5
4 9 1 9 -4 0 -6 6 -11 14 -11 8 0 22 -8 32 -17 10 -10 21 -18 25 -18 5 0 17
-7 27 -16 10 -8 24 -13 31 -11 8 3 11 0 7 -7 -5 -7 1 -11 14 -11 12 0 18 -4
15 -10 -3 -5 3 -10 15 -10 11 0 23 -6 26 -14 3 -8 12 -12 20 -9 7 3 16 -2 20
-10 3 -9 14 -14 25 -12 11 2 17 0 14 -5 -3 -5 11 -14 30 -21 19 -7 35 -16 35
-19 0 -4 18 -13 40 -20 22 -7 40 -17 40 -22 0 -4 9 -8 20 -8 11 0 20 -5 20
-11 0 -5 4 -8 9 -5 4 3 17 -1 27 -9 10 -8 27 -15 37 -15 9 0 17 -5 17 -12 0
-6 3 -8 6 -5 4 4 21 -1 38 -10 68 -35 69 -35 60 -21 -8 13 15 -2 44 -30 8 -7
18 -9 23 -6 6 3 20 -2 31 -13 12 -10 18 -12 14 -5 -4 6 -2 12 3 12 6 0 11 -4
11 -10 0 -5 12 -13 28 -16 15 -4 32 -9 37 -13 6 -3 19 -7 29 -8 11 -2 25 -8
33 -14 7 -6 19 -9 28 -5 8 3 14 0 12 -6 -1 -6 9 -12 23 -12 14 0 28 -5 32 -12
4 -6 18 -11 30 -10 13 1 26 -3 30 -8 3 -5 23 -10 43 -12 21 -1 40 -6 44 -11
10 -16 41 -23 41 -10 0 8 3 8 9 -2 5 -7 14 -10 20 -7 6 4 11 2 11 -3 0 -6 11
-11 25 -11 14 0 25 -4 25 -8 0 -7 27 -13 73 -15 9 -1 17 -5 17 -9 0 -4 5 -8
11 -8 5 0 7 6 4 13 -4 6 -1 5 7 -4 7 -9 19 -14 26 -11 7 2 20 -2 29 -10 14
-11 16 -11 9 2 -4 8 0 6 8 -4 16 -20 16 -20 16 0 0 16 2 16 10 4 5 -8 20 -15
32 -15 13 -1 29 -4 36 -8 6 -5 12 -5 12 -1 0 3 6 1 14 -5 8 -7 26 -10 40 -7
14 3 28 1 31 -4 3 -4 14 -6 25 -3 11 3 20 1 20 -5 0 -6 8 -9 18 -7 9 1 34 -3
55 -10 20 -7 34 -9 31 -4 -3 5 -1 9 5 9 5 0 13 -4 16 -10 9 -15 27 -12 19 2
-4 7 1 6 12 -3 11 -9 34 -15 56 -13 21 1 36 -1 33 -5 -2 -4 9 -6 26 -5 16 1
29 -3 29 -9 0 -7 5 -5 10 3 5 8 10 10 10 4 0 -6 12 -10 28 -9 15 1 35 -2 46
-8 13 -6 16 -6 12 2 -4 6 -2 11 3 11 6 0 11 -4 11 -8 0 -11 25 -11 515 -13
400 -1 483 2 508 18 6 3 7 1 3 -5 -4 -7 -2 -12 3 -12 6 0 11 4 11 8 0 5 19 8
43 7 23 0 45 4 49 10 5 6 8 4 8 -4 0 -11 4 -10 16 5 8 10 13 14 10 7 -4 -6 -2
-14 4 -18 5 -3 10 0 10 7 0 9 15 13 50 13 28 0 50 4 50 8 0 5 7 7 15 3 8 -3
15 -1 15 4 0 6 5 10 11 10 5 0 8 -4 5 -8 -3 -5 1 -9 8 -9 8 0 12 6 9 13 -4 10
2 11 26 4 19 -5 33 -5 37 1 3 6 12 8 19 5 7 -2 16 2 19 10 5 12 10 13 26 4 16
-9 25 -8 36 1 8 6 14 8 14 4 0 -4 12 0 26 10 15 9 23 12 20 6 -4 -6 -3 -11 3
-11 5 0 12 4 15 9 4 5 17 8 31 6 14 -1 25 2 25 7 0 5 5 6 10 3 6 -3 10 -1 10
6 0 9 3 9 14 0 10 -8 16 -9 21 -1 3 5 17 10 30 10 13 0 26 4 30 9 3 6 14 10
25 10 11 1 29 1 40 2 11 0 20 4 20 8 0 4 14 8 31 9 17 0 36 5 42 10 7 4 23 9
37 10 14 1 26 6 28 12 2 5 8 10 13 10 6 0 7 -6 4 -12 -4 -7 -1 -6 7 3 7 9 19
14 26 11 7 -2 19 1 27 8 8 6 19 9 25 5 5 -3 10 -1 10 4 0 6 3 10 8 10 21 -4
32 2 26 14 -5 8 -2 8 9 -2 13 -11 17 -11 17 -1 0 8 3 10 7 7 3 -4 15 1 26 10
11 10 17 12 13 6 -4 -7 -2 -13 3 -13 6 0 11 5 11 11 0 5 4 8 9 4 5 -3 16 1 24
9 8 8 17 12 21 9 3 -3 12 0 20 6 8 7 20 10 26 6 5 -3 10 -1 10 5 0 6 5 8 10 5
6 -3 10 -1 10 5 0 6 8 10 18 8 9 -2 16 2 15 8 -1 7 6 10 16 7 10 -2 24 2 32 9
8 7 26 13 40 13 18 -1 25 3 22 12 -3 9 4 13 21 13 14 0 26 5 26 11 0 5 5 7 10
4 6 -3 10 -2 10 3 0 5 11 8 26 6 18 -2 23 1 15 10 -7 9 -3 12 17 11 15 0 26 5
25 11 -1 6 6 11 15 11 34 0 43 3 38 12 -4 5 2 8 11 7 10 -2 21 1 24 6 5 8 25
15 52 17 5 1 5 6 1 13 -5 8 -2 9 9 5 9 -3 23 0 31 8 7 8 16 11 20 8 3 -4 6 -2
6 4 0 10 36 26 53 24 4 -1 7 4 7 10 0 5 5 7 10 4 6 -3 10 -1 10 5 0 7 7 10 15
6 9 -3 15 0 15 9 0 8 3 14 8 14 20 -3 32 2 26 12 -4 8 1 9 16 4 15 -5 20 -4
16 4 -4 6 0 11 8 11 9 0 16 5 16 11 0 5 4 8 8 5 5 -3 18 3 29 14 12 10 24 16
27 13 3 -4 6 -1 6 5 0 7 3 11 8 11 20 -3 32 2 27 12 -4 6 0 9 8 7 9 -2 23 6
32 17 9 11 14 13 10 5 -4 -9 -1 -8 8 3 9 10 19 18 24 19 4 0 7 4 6 9 -2 4 4 6
12 3 8 -4 17 1 21 10 3 9 10 13 15 10 5 -3 12 2 15 10 3 9 15 16 25 16 11 0
19 7 19 16 0 9 5 14 12 12 7 -3 23 7 35 20 13 14 23 22 23 18 0 -4 10 -2 21 5
18 9 19 13 8 20 -10 7 -5 8 14 5 19 -3 27 0 27 10 0 8 4 13 9 10 5 -3 12 1 15
10 4 10 12 14 22 10 12 -4 15 -2 10 9 -4 10 1 15 15 15 11 0 18 4 14 9 -7 12
29 33 40 23 5 -4 5 -2 2 4 -7 12 20 29 38 25 6 -2 7 0 3 4 -7 7 33 51 44 48 4
-2 5 6 3 17 -3 13 1 17 11 13 8 -3 14 -2 12 3 -4 12 49 63 57 55 4 -3 13 2 20
13 8 10 18 15 24 11 6 -3 9 0 5 8 -3 8 2 17 11 21 9 3 14 10 10 15 -3 5 0 13
6 17 8 4 9 3 5 -4 -4 -7 -3 -12 1 -12 5 0 14 9 21 20 7 12 17 18 22 15 6 -4
10 6 10 22 0 19 3 24 9 14 6 -9 11 -10 15 -2 4 6 4 16 1 21 -4 6 -3 10 2 9 20
-3 34 2 28 11 -3 6 -1 10 5 10 6 0 9 4 5 9 -3 5 4 12 14 16 12 4 18 12 14 21
-3 9 1 14 12 14 9 0 14 3 12 8 -4 7 26 40 41 45 4 1 6 8 6 15 -1 7 0 11 3 8
10 -10 45 16 39 29 -3 9 0 12 10 8 7 -3 14 0 14 6 0 6 11 16 25 23 13 6 22 15
19 19 -3 5 0 9 6 9 6 0 8 4 5 10 -3 5 3 10 15 10 12 0 18 4 15 10 -3 5 5 15
19 21 14 7 33 23 41 36 9 13 20 21 25 18 5 -3 11 4 15 15 3 11 12 19 18 17 7
-1 11 4 9 11 -1 6 3 12 9 12 6 0 17 7 25 15 9 8 12 15 8 15 -4 0 1 7 12 16 10
8 12 13 4 9 -10 -4 -9 -2 2 8 10 8 15 17 11 20 -6 7 12 11 30 8 5 -1 6 3 2 9
-3 6 4 14 17 19 13 4 22 11 21 15 -7 15 -2 20 7 6 8 -13 10 -12 10 3 0 10 4
16 10 12 5 -3 16 8 25 24 8 16 24 36 36 45 12 8 18 19 15 25 -5 7 -1 8 10 4
11 -4 15 -2 12 8 -2 7 6 23 19 35 12 11 20 24 16 27 -3 4 -1 7 5 7 6 0 19 16
28 35 9 19 20 35 25 35 5 0 9 7 9 16 0 8 5 12 10 9 6 -3 10 1 10 9 0 9 5 16
11 16 8 0 8 4 0 14 -9 11 -8 14 6 12 13 -1 18 6 17 21 -1 14 3 20 12 16 8 -3
14 1 14 11 0 9 4 16 10 16 5 0 6 7 3 17 -5 12 -3 14 7 8 10 -6 12 -4 7 9 -4 9
-3 15 2 12 4 -3 13 6 19 19 7 14 16 25 21 25 6 0 8 6 5 14 -3 8 0 17 5 21 6 3
8 11 5 17 -4 6 -2 8 4 4 6 -3 13 3 17 14 4 12 11 17 18 14 7 -4 9 -3 4 1 -4 5
1 18 10 29 18 20 17 20 -2 6 l-20 -15 20 24 c11 13 19 26 18 30 -1 3 1 8 4 11
4 3 3 -1 -1 -7 -4 -7 -2 -13 5 -13 6 0 9 8 6 20 -3 11 -1 18 4 14 5 -3 9 2 9
10 0 9 4 16 10 16 5 0 6 7 3 17 -4 11 -3 14 5 9 11 -6 17 5 13 27 0 4 3 7 9 7
5 0 10 9 10 19 0 11 5 23 10 26 6 4 7 11 4 17 -4 7 -2 8 4 4 11 -6 16 6 13 27
0 4 3 7 9 7 5 0 10 9 10 20 0 11 7 20 16 20 9 0 12 5 8 12 -4 6 1 17 10 24 12
8 14 14 6 19 -7 5 -5 12 7 23 10 10 18 24 18 32 0 8 5 14 12 13 8 -2 10 4 6
14 -4 9 1 21 12 29 11 8 13 14 6 14 -9 0 -8 5 3 16 9 8 16 21 16 28 0 8 7 19
15 26 12 10 13 16 3 28 -10 13 -10 14 0 8 12 -7 16 4 13 32 -1 7 4 11 11 10 8
-2 12 5 10 21 -2 13 2 27 10 32 7 4 13 14 14 21 3 34 5 39 15 32 8 -5 10 3 7
24 -2 18 0 30 6 29 6 -1 11 9 12 22 1 13 7 27 14 31 10 6 9 9 -1 13 -10 4 -8
6 4 6 10 1 15 6 12 11 -4 6 -1 17 5 25 6 8 9 19 5 25 -3 5 -1 10 6 10 7 0 9 3
6 7 -4 3 -1 13 6 21 10 13 9 14 -2 7 -9 -5 -7 3 6 21 11 16 18 35 15 43 -2 8
0 11 5 8 11 -7 11 22 0 41 -6 8 -3 10 9 5 12 -4 15 -3 10 5 -4 7 -2 12 3 12 6
0 11 7 11 15 0 8 -4 15 -10 15 -5 0 -10 4 -10 10 0 5 7 7 15 4 10 -4 13 0 10
15 -2 12 1 21 7 21 6 0 5 6 -2 16 -11 12 -11 15 0 12 9 -2 15 6 16 19 1 13 6
29 13 36 6 8 8 17 4 20 -3 4 0 13 6 21 9 10 9 16 1 21 -8 5 -5 12 7 22 10 8
11 11 3 7 -13 -7 -13 -6 0 10 8 10 13 32 11 48 -1 17 1 28 6 25 6 -4 10 0 10
8 0 8 -5 15 -11 15 -6 0 -3 5 7 11 14 8 15 14 6 31 -7 13 -7 18 0 14 5 -4 15
2 21 13 7 14 7 22 -1 26 -7 5 -4 15 6 32 10 14 12 22 6 19 -6 -4 -11 -3 -11 3
0 5 4 12 8 15 5 3 10 18 11 33 5 79 7 92 14 99 4 4 7 23 7 41 0 25 4 32 13 27
6 -4 3 3 -8 16 -11 13 -14 20 -7 16 12 -7 16 3 12 38 -1 12 3 16 10 11 9 -6 9
-2 1 14 -9 16 -9 21 0 21 8 0 8 4 -1 15 -7 8 -8 15 -3 15 8 0 13 58 13 148 0
9 0 222 0 472 0 250 -1 474 -3 498 -2 23 1 42 5 42 5 0 5 8 0 18 -5 9 -8 26
-6 37 1 11 -2 23 -9 27 -7 4 -7 8 -2 8 13 0 12 44 -1 62 -12 16 -11 68 0 87 7
10 6 12 -4 6 -10 -6 -12 -3 -8 13 4 13 1 22 -5 22 -7 0 -5 5 3 10 13 8 8 14
-11 12 -3 -1 -6 5 -6 13 0 8 4 12 9 9 4 -3 8 0 8 5 0 6 -5 11 -11 11 -8 0 -8
4 0 13 7 9 7 17 0 24 -6 6 -11 26 -11 44 -1 19 -8 39 -17 46 -9 7 -11 13 -5
13 14 0 5 60 -10 60 -6 0 -4 5 4 10 12 7 12 10 1 10 -8 0 -11 6 -7 15 3 9 -1
18 -10 22 -13 5 -13 7 -2 14 11 7 10 11 -2 19 -8 5 -11 10 -5 10 5 0 4 5 -2
11 -6 6 -9 18 -6 25 3 8 -1 14 -8 14 -11 0 -11 3 1 10 9 6 11 10 3 10 -7 0
-10 6 -7 14 3 7 -2 21 -11 30 -9 9 -12 16 -6 16 15 0 9 22 -9 38 -8 8 -9 11
-3 7 9 -4 11 -1 7 9 -3 9 -11 13 -18 9 -8 -4 -8 -2 1 7 9 9 7 23 -7 56 -11 24
-15 44 -9 44 6 0 7 5 4 10 -4 6 -10 8 -15 5 -5 -3 -12 0 -16 6 -4 8 -3 9 4 5
16 -10 15 7 0 23 -11 11 -10 12 2 6 12 -7 13 -6 3 7 -7 8 -9 19 -5 23 4 5 1 4
-7 0 -11 -6 -13 -4 -8 8 3 9 1 19 -5 23 -7 4 -6 9 3 15 10 6 11 9 2 9 -7 0
-13 7 -13 15 0 8 -5 15 -11 15 -8 0 -8 4 0 14 8 10 9 16 1 21 -6 3 -8 11 -5
16 4 5 -1 12 -9 15 -9 3 -16 17 -16 29 0 13 -4 27 -10 30 -5 3 -10 15 -10 26
0 14 -4 18 -12 13 -10 -6 -10 -5 -1 7 10 13 9 20 -7 37 -23 24 -26 36 -7 27 6
-4 3 1 -7 9 -11 9 -16 16 -10 16 5 0 2 5 -6 10 -12 8 -12 10 -1 10 9 0 6 7 -9
20 -15 13 -18 20 -9 20 8 0 10 3 4 8 -18 13 -42 47 -27 38 11 -7 12 -4 3 13
-7 11 -17 21 -24 21 -7 0 -6 4 3 10 9 6 11 10 3 10 -7 0 -10 7 -6 17 4 10 2
14 -5 9 -6 -3 -13 -2 -17 4 -3 5 0 10 7 10 10 0 10 2 -1 9 -7 5 -11 14 -7 20
4 6 2 9 -7 5 -17 -6 -19 27 -3 39 7 6 4 7 -7 3 -13 -4 -19 1 -23 24 -4 16 -13
32 -22 35 -14 5 -14 7 -2 15 12 8 12 10 -3 16 -9 3 -17 13 -17 21 0 9 -5 11
-12 7 -9 -5 -9 -2 1 9 13 17 7 22 -20 19 -4 -1 -6 4 -6 11 1 39 -5 57 -18 57
-8 0 -15 5 -15 11 0 5 4 7 10 4 6 -3 7 1 4 9 -3 9 -9 16 -13 16 -3 0 -12 9
-19 21 -11 17 -11 20 0 13 10 -6 10 -4 -1 9 -7 9 -18 14 -24 10 -6 -4 -7 -1
-3 6 5 7 0 21 -11 33 -10 12 -13 19 -7 15 6 -3 11 0 11 7 0 7 -7 13 -16 12
-10 -1 -15 6 -13 17 2 10 -3 17 -13 17 -9 0 -15 9 -15 26 0 16 -4 23 -12 18
-8 -5 -9 0 -5 15 4 17 2 21 -9 17 -8 -3 -13 -2 -10 3 3 5 -1 14 -9 21 -8 7
-15 19 -15 26 0 8 -4 14 -10 14 -5 0 -10 9 -10 20 0 12 -7 20 -17 20 -14 0
-15 2 -5 9 11 7 11 9 -2 14 -9 4 -16 13 -16 22 0 8 -4 15 -8 15 -5 0 -17 18
-28 40 -10 22 -25 40 -33 40 -11 0 -11 3 -1 15 10 12 8 14 -9 10 -13 -2 -21 1
-20 8 3 25 -1 38 -11 32 -5 -3 -10 1 -10 10 0 20 -23 45 -42 45 -11 0 -11 2 0
9 11 7 11 9 -2 14 -9 4 -16 14 -16 22 0 10 -5 13 -12 9 -8 -5 -9 -2 -5 10 4
10 3 15 -3 11 -6 -3 -10 1 -10 9 0 8 -9 20 -20 26 -11 6 -18 15 -15 21 4 5 -2
9 -11 9 -10 0 -15 3 -11 6 3 4 -12 24 -34 45 -22 22 -35 39 -27 39 7 1 0 8
-15 16 -18 10 -27 21 -23 30 3 8 2 13 -3 10 -10 -6 -52 40 -44 48 4 3 -1 6
-10 6 -8 0 -19 9 -22 20 -4 11 -11 17 -17 14 -8 -5 -9 -1 -5 10 6 14 3 17 -8
12 -9 -3 -14 -2 -11 2 2 4 -11 23 -30 41 -18 18 -31 37 -29 42 3 4 -3 6 -14 4
-15 -3 -19 1 -16 17 3 14 0 18 -11 14 -8 -3 -13 -2 -10 3 3 5 -8 19 -24 31
-17 13 -30 30 -30 39 0 13 -2 13 -9 2 -7 -11 -10 -9 -16 8 -3 11 -13 21 -21
21 -8 0 -12 5 -9 10 3 6 1 10 -5 10 -6 0 -8 5 -5 10 3 6 -4 10 -17 10 -18 0
-20 2 -8 10 13 8 12 10 -2 10 -10 0 -18 5 -18 11 0 5 -4 7 -10 4 -5 -3 -10 1
-10 9 0 8 -9 18 -20 21 -11 3 -20 13 -20 21 0 8 -4 12 -10 9 -5 -3 -10 1 -10
9 0 9 -4 15 -9 13 -5 -1 -25 14 -44 34 -20 20 -38 34 -41 31 -3 -3 -6 0 -6 7
0 7 -5 9 -12 5 -8 -5 -9 -2 -5 9 4 11 1 17 -8 17 -8 0 -15 5 -15 11 0 5 -4 8
-9 5 -5 -3 -11 1 -15 9 -3 8 -13 15 -21 15 -9 0 -13 5 -10 10 3 6 -2 10 -11
10 -10 0 -14 3 -11 6 7 8 -44 50 -55 46 -5 -1 -8 2 -8 6 0 5 -12 14 -26 20
-15 7 -22 17 -18 24 4 7 3 8 -4 4 -7 -4 -12 -2 -12 3 0 6 -7 11 -15 11 -8 0
-15 5 -15 10 0 6 -7 10 -15 10 -8 0 -15 7 -15 16 0 8 -4 12 -10 9 -5 -3 -10
-1 -10 4 0 6 -7 11 -15 11 -7 0 -19 8 -24 18 -6 9 -11 14 -11 10 0 -7 -25 10
-55 39 -7 7 -15 9 -19 6 -3 -4 -6 -1 -6 5 0 6 -7 9 -17 5 -10 -4 -14 -2 -9 5
7 12 -27 35 -38 25 -3 -3 -6 2 -6 12 0 10 -3 15 -7 12 -3 -4 -12 1 -20 11 -10
11 -12 12 -8 2 4 -8 -3 -4 -14 9 -12 13 -21 20 -21 16 0 -4 -6 -2 -13 4 -8 6
-16 10 -18 8 -2 -1 -3 0 -2 2 3 5 -24 31 -32 31 -3 0 -3 -6 0 -12 4 -7 -2 -3
-13 10 -11 12 -26 22 -33 22 -6 0 -18 8 -26 18 -10 11 -12 12 -8 2 4 -10 2 -9
-8 3 -8 9 -19 17 -26 17 -6 0 -11 5 -11 11 0 5 -4 8 -9 5 -4 -3 -19 3 -32 15
-12 11 -29 17 -36 14 -8 -2 -11 0 -8 5 3 6 -1 10 -9 10 -9 0 -16 5 -16 10 0 6
-6 9 -12 8 -7 -2 -12 3 -10 11 2 11 0 12 -11 3 -10 -9 -16 -7 -27 8 -10 14
-16 16 -22 7 -5 -8 -8 -7 -8 5 0 12 -6 16 -20 13 -11 -2 -18 0 -15 6 4 5 -3 9
-14 9 -12 0 -21 4 -21 8 0 5 -19 15 -42 22 -24 8 -46 20 -51 27 -4 7 -14 10
-22 7 -10 -4 -15 0 -15 12 0 16 -2 17 -10 4 -7 -11 -10 -11 -10 -2 0 7 -4 10
-10 7 -5 -3 -10 -1 -10 5 0 6 -4 8 -10 5 -5 -3 -10 -1 -10 5 0 7 -7 9 -15 6
-9 -3 -18 1 -21 9 -4 8 -11 12 -16 9 -6 -4 -14 -1 -18 5 -4 7 -17 13 -28 14
-12 1 -22 5 -22 10 0 4 -4 5 -10 2 -5 -3 -10 -1 -10 5 0 6 -4 8 -10 5 -5 -3
-10 -1 -10 5 0 6 -4 9 -9 6 -5 -3 -14 1 -21 8 -6 8 -20 13 -31 11 -10 -2 -19
1 -19 6 0 6 -4 7 -10 4 -5 -3 -10 -1 -10 5 0 6 -4 8 -10 5 -5 -3 -10 0 -10 7
0 9 -3 9 -10 -2 -7 -11 -10 -11 -10 -2 0 7 -4 10 -10 7 -5 -3 -10 -1 -10 5 0
7 -7 9 -15 6 -9 -3 -18 1 -22 10 -5 13 -7 13 -14 2 -7 -10 -9 -10 -9 2 0 11
-9 15 -27 14 -16 0 -31 3 -34 8 -5 8 -39 19 -66 20 -7 1 -13 6 -13 11 0 5 -7
7 -15 3 -8 -3 -15 0 -15 6 0 6 -6 5 -17 -3 -9 -8 -14 -9 -11 -4 4 6 -2 17 -14
24 -11 7 -17 8 -13 2 3 -6 1 -11 -4 -11 -6 0 -11 5 -11 11 0 5 -4 8 -9 4 -5
-3 -13 0 -16 6 -4 5 -13 8 -21 5 -8 -3 -14 -1 -14 5 0 6 -5 7 -10 4 -6 -4 -18
-1 -27 7 -14 11 -16 11 -8 -2 5 -9 0 -8 -13 4 -17 14 -22 16 -22 5 0 -11 -2
-12 -9 -1 -4 8 -12 14 -17 14 -5 0 -8 5 -6 12 2 8 0 8 -9 -1 -8 -8 -18 -9 -31
-2 -10 5 -18 7 -18 4 0 -3 -9 -1 -19 5 -14 7 -21 6 -24 -3 -4 -7 -6 -6 -6 5
-1 11 -9 15 -31 14 -16 -1 -30 2 -30 7 0 4 -4 5 -10 2 -5 -3 -10 -2 -10 4 0 5
-8 8 -17 6 -10 -1 -25 1 -34 6 -10 5 -21 3 -29 -4 -10 -10 -11 -9 -5 2 6 11 4
13 -8 8 -11 -4 -14 -2 -10 9 4 12 1 13 -21 5 -14 -6 -28 -6 -31 -2 -3 5 -13 8
-23 7 -9 -2 -19 0 -22 5 -3 4 -23 9 -45 10 -22 1 -46 7 -53 13 -10 7 -16 6
-21 -3 -7 -10 -9 -10 -13 1 -4 9 -20 13 -47 11 -26 -1 -41 2 -41 10 0 8 -3 8
-8 2 -9 -12 -32 -18 -32 -7 0 7 -39 12 -107 15 -18 1 -33 5 -33 10 0 5 -6 4
-14 -2 -11 -9 -15 -9 -19 1 -4 10 -6 10 -6 -1 -1 -11 -4 -11 -16 -1 -12 10
-15 10 -15 -1 0 -12 -2 -12 -9 0 -6 9 -11 10 -15 2 -5 -7 -16 -5 -34 6 -26 17
-27 17 -12 -1 14 -18 14 -19 -6 -8 -11 6 -29 11 -40 12 -10 0 -63 1 -116 3
-54 1 -98 5 -98 9 0 7 -21 5 -35 -4 -6 -4 -17 -3 -25 2 -9 5 -19 5 -27 -2 -9
-7 -13 -7 -13 0 0 5 -11 9 -25 8 -14 0 -25 -5 -25 -9 0 -5 -5 -5 -10 -2 -6 4
-8 11 -5 16 4 5 4 9 1 9 -3 0 -8 -5 -11 -11z m3250 -1129 c3 -5 1 -10 -4 -10
-6 0 -11 5 -11 10 0 6 2 10 4 10 3 0 8 -4 11 -10z m982 -2734 c0 -7 -6 -13
-13 -13 -7 0 -10 7 -6 15 4 11 1 13 -8 7 -8 -5 -11 -4 -6 3 8 14 33 5 33 -12z
m10 -52 c-3 -3 -12 -4 -19 -1 -8 3 -5 6 6 6 11 1 17 -2 13 -5z m13 -48 c0 -3
-4 -8 -10 -11 -5 -3 -10 -1 -10 4 0 6 5 11 10 11 6 0 10 -2 10 -4z m20 -20 c0
-2 -7 -7 -16 -10 -8 -3 -12 -2 -9 4 6 10 25 14 25 6z m15 -98 c5 4 5 1 1 -6
-6 -10 -11 -10 -22 -1 -8 6 -14 14 -14 16 0 3 6 0 13 -6 8 -6 18 -7 22 -3z"/>
<path d="M10505 6080 c-3 -5 -1 -10 4 -10 6 0 11 5 11 10 0 6 -2 10 -4 10 -3
0 -8 -4 -11 -10z"/>
</g>
</svg>
